<?xml version="1.0" standalone="no"?>
<!DOCTYPE svg PUBLIC "-//W3C//DTD SVG 20010904//EN"
 "http://www.w3.org/TR/2001/REC-SVG-20010904/DTD/svg10.dtd">
<svg version="1.0" xmlns="http://www.w3.org/2000/svg"
 width="2765.000000pt" height="522.000000pt" viewBox="0 0 2765.000000 522.000000"
 preserveAspectRatio="xMidYMid meet">
<metadata>
Created by potrace 1.11, written by Peter Selinger 2001-2013
</metadata>
<g transform="translate(0.000000,522.000000) scale(0.100000,-0.100000)"
fill="#000000" stroke="none">
<path d="M4572 4581 l-273 -135 3 -40 c2 -29 7 -40 17 -38 8 2 39 10 69 17 46
12 59 12 87 1 87 -37 109 -153 109 -581 0 -199 -13 -999 -19 -1170 -1 -38 -5
-176 -9 -305 -9 -335 -22 -425 -65 -464 -23 -21 -102 -51 -157 -61 -37 -6 -42
-10 -46 -35 -6 -41 3 -51 43 -46 119 17 736 25 759 11 6 -4 10 9 10 34 0 23
-3 41 -7 42 -5 0 -15 2 -23 3 -8 2 -46 7 -85 11 -97 10 -132 26 -153 72 -15
33 -17 74 -17 308 0 231 8 535 21 760 1 33 3 69 3 80 1 16 19 28 85 54 106 41
240 77 328 89 296 38 430 -91 465 -448 10 -97 10 -558 1 -675 -4 -49 -14 -113
-23 -142 -25 -84 -51 -107 -172 -154 -24 -9 -29 -25 -15 -47 7 -10 19 -10 58
-1 47 11 162 14 537 18 l167 1 0 34 0 33 -97 5 c-106 6 -165 24 -183 58 -7 14
-10 75 -9 178 5 322 4 729 -3 802 -22 232 -87 380 -202 457 -69 47 -116 58
-241 58 -173 -1 -327 -45 -668 -190 l-38 -16 5 183 c4 101 8 253 11 338 8 252
15 441 20 505 9 117 16 210 20 235 2 14 9 61 15 105 6 44 15 97 19 118 9 36 7
39 -22 58 -18 10 -36 18 -42 17 -5 -1 -133 -62 -283 -137z"/>
<path d="M987 4465 c-156 -40 -190 -255 -51 -317 93 -41 210 7 250 101 55 131
-57 252 -199 216z"/>
<path d="M22253 3677 c-118 -152 -283 -302 -419 -383 -31 -18 -43 -32 -46 -54
-5 -30 -4 -30 47 -30 29 0 80 -3 114 -6 l62 -7 -3 -581 c-2 -524 0 -587 15
-645 39 -143 120 -225 251 -251 158 -32 489 64 663 194 32 24 42 38 43 60 0
23 -3 27 -17 21 -210 -86 -330 -118 -423 -113 -126 7 -198 67 -236 194 -16 53
-17 101 -14 499 1 242 4 467 5 500 2 33 4 72 4 86 1 15 10 37 20 50 l19 24
295 0 c162 0 298 3 301 6 4 3 7 34 9 67 l2 62 -285 4 c-157 2 -294 7 -305 9
-11 3 -26 6 -33 6 -10 1 -12 16 -8 64 9 101 19 317 15 317 -2 0 -36 -42 -76
-93z"/>
<path d="M1079 3473 c-120 -97 -326 -218 -474 -278 -38 -16 -73 -31 -77 -35
-4 -3 -2 -20 4 -38 9 -22 17 -31 28 -27 8 4 42 9 75 12 192 18 217 -113 218
-1132 1 -253 -2 -503 -6 -555 -17 -208 -64 -335 -184 -493 -67 -87 -120 -179
-143 -246 -29 -87 -27 -115 12 -151 40 -36 48 -37 48 -7 0 82 55 157 196 270
117 94 247 235 282 307 61 123 60 104 56 1135 -2 517 1 972 6 1010 13 110 20
149 30 186 14 47 13 57 -8 68 -14 8 -28 2 -63 -26z"/>
<path d="M15935 3402 c-60 -36 -180 -105 -265 -154 -85 -49 -161 -96 -167
-105 -7 -9 -13 -29 -13 -44 0 -25 2 -27 28 -20 15 4 56 9 92 10 50 1 72 -3 97
-18 76 -47 84 -103 79 -561 -4 -408 -14 -505 -60 -605 -29 -64 -65 -90 -148
-107 -56 -12 -58 -13 -58 -45 l0 -33 98 5 c112 5 328 12 657 21 127 3 233 8
238 11 4 2 7 24 7 49 0 25 -4 43 -8 40 -5 -3 -92 -6 -195 -7 -167 -2 -189 0
-206 16 -21 18 -36 56 -46 110 -32 186 -24 928 11 996 19 37 119 112 204 153
53 25 78 31 132 31 56 0 70 -4 92 -24 22 -20 38 -63 41 -106 2 -28 130 17 178
63 41 39 57 74 57 127 0 80 -32 129 -110 171 -19 10 -42 25 -52 32 -14 12 -39
0 -190 -90 -230 -138 -358 -211 -363 -206 -2 2 -5 81 -5 176 -1 94 -5 173 -8
175 -4 2 -56 -25 -117 -61z"/>
<path d="M13974 3400 c-159 -32 -399 -142 -492 -225 -98 -89 -121 -143 -101
-237 l11 -48 31 14 c18 7 61 27 97 44 36 16 82 37 103 46 21 8 36 20 33 25 -4
5 -10 30 -15 55 -18 97 70 171 204 171 159 0 293 -121 329 -298 15 -74 10
-418 -6 -428 -6 -4 -36 -10 -67 -13 -285 -33 -625 -140 -714 -224 -63 -59 -87
-149 -82 -307 4 -154 57 -237 172 -271 125 -36 317 9 569 136 l136 67 9 -26
c25 -66 57 -116 97 -153 57 -52 66 -51 302 44 l185 74 3 45 3 46 -83 -28
c-129 -44 -182 -38 -215 24 -36 69 -43 134 -38 327 3 102 8 203 11 225 2 22 5
139 6 260 1 241 -10 323 -56 414 -35 67 -142 163 -239 211 -82 41 -112 46
-193 30z m199 -1137 c-4 -76 -7 -168 -6 -205 l1 -66 -98 -46 c-268 -126 -366
-135 -445 -43 -43 50 -74 144 -70 210 4 69 46 133 120 182 101 68 234 101 413
104 l92 1 -7 -137z"/>
<path d="M20266 3384 c-246 -67 -434 -176 -515 -298 -21 -32 -25 -50 -24 -101
2 -101 1 -101 133 -41 63 29 122 55 131 58 14 6 15 12 4 54 -6 26 -10 58 -7
71 8 41 66 91 128 109 164 47 341 -64 401 -254 12 -36 15 -93 14 -251 -1 -113
-3 -206 -5 -208 -5 -5 -56 -14 -161 -29 -146 -20 -404 -93 -527 -148 -144 -64
-190 -158 -184 -371 5 -147 51 -226 152 -264 130 -48 322 -6 591 129 112 56
136 65 140 51 32 -98 119 -201 170 -201 16 0 116 35 223 78 l195 78 3 46 3 46
-83 -29 c-111 -39 -161 -38 -198 1 -16 17 -34 53 -41 82 -16 62 -18 264 -4
533 23 467 -1 611 -122 726 -67 63 -112 95 -185 129 -76 36 -113 37 -232 4z
m257 -1116 c-4 -73 -7 -165 -7 -205 l0 -72 -101 -47 c-248 -116 -346 -130
-424 -58 -52 47 -83 122 -85 205 -1 57 3 72 29 115 53 86 200 164 342 181 26
3 49 7 51 8 2 1 48 3 102 4 l100 2 -7 -133z"/>
<path d="M2680 3379 c-85 -15 -104 -20 -164 -40 -120 -40 -286 -145 -355 -224
-150 -174 -214 -349 -213 -580 2 -387 220 -663 617 -781 76 -23 113 -27 240
-30 133 -3 161 0 243 21 320 83 548 325 618 658 21 103 13 311 -16 402 -44
137 -104 237 -203 337 -161 165 -369 249 -607 247 -63 -1 -135 -5 -160 -10z
m212 -119 c116 -35 254 -142 335 -260 271 -398 187 -961 -169 -1134 -161 -78
-346 -58 -495 55 -148 112 -288 370 -321 594 -13 89 -7 275 11 345 84 320 348
485 639 400z"/>
<path d="M24260 3373 c-361 -75 -608 -306 -682 -637 -26 -119 -21 -322 12
-436 75 -263 282 -456 585 -547 81 -24 106 -27 255 -27 190 -1 264 14 405 85
228 113 403 352 445 610 14 92 12 254 -5 328 -76 321 -330 565 -653 627 -92
18 -271 16 -362 -3z m222 -108 c221 -56 407 -269 490 -562 29 -102 31 -321 5
-428 -23 -93 -86 -218 -142 -282 -154 -176 -404 -225 -595 -116 -332 190 -500
764 -326 1116 113 228 332 333 568 272z"/>
<path d="M7346 3339 c-94 -49 -192 -92 -311 -134 -73 -27 -90 -37 -91 -54 -1
-13 5 -21 15 -21 9 -1 34 -3 56 -6 126 -17 175 -54 196 -149 21 -97 17 -720
-7 -920 -18 -154 -51 -185 -247 -229 -23 -5 -27 -11 -25 -36 l2 -30 256 -1
c140 -1 271 -2 290 -4 111 -9 290 -14 291 -8 0 5 2 18 5 30 4 23 -3 27 -66 37
-89 14 -104 18 -137 34 -49 23 -71 57 -80 122 -8 58 -8 583 1 835 3 83 5 165
5 183 1 31 5 35 75 67 153 71 329 116 458 117 186 1 284 -90 322 -302 13 -68
15 -142 11 -375 -2 -159 -6 -301 -9 -315 -2 -14 -7 -55 -10 -92 -3 -37 -11
-91 -17 -120 -18 -85 -79 -132 -216 -168 -39 -10 -43 -14 -43 -41 l0 -30 93 8
c117 10 572 10 655 0 l62 -8 0 30 c0 37 -3 38 -99 61 -131 32 -133 34 -145
120 -3 19 -6 242 -6 495 -2 619 -15 702 -129 816 -86 86 -139 103 -321 104
-142 0 -147 -1 -258 -39 -62 -21 -182 -74 -267 -117 l-155 -78 -1 62 c0 88 -8
157 -20 178 -15 29 -48 23 -133 -22z"/>
<path d="M26610 3373 c-227 -27 -401 -135 -480 -297 -67 -136 -56 -257 31
-359 57 -67 130 -113 331 -211 95 -47 203 -108 240 -136 71 -54 140 -145 158
-208 25 -92 -1 -203 -61 -250 -74 -59 -242 -81 -360 -46 -136 40 -302 176
-363 297 -15 31 -31 58 -35 58 -67 12 -69 10 -46 -67 8 -27 14 -50 14 -52 -1
-1 5 -40 11 -86 10 -63 10 -98 2 -138 -6 -29 -7 -56 -3 -60 4 -4 45 -19 91
-33 221 -66 421 -76 575 -28 112 35 281 119 334 167 114 102 134 329 43 486
-69 120 -173 196 -457 335 -167 81 -197 99 -237 144 -55 61 -68 113 -50 200
36 169 203 235 387 152 115 -53 225 -151 259 -232 12 -29 19 -34 50 -35 26 -1
36 3 36 14 0 26 -63 347 -69 353 -3 4 -37 10 -76 13 -38 3 -90 9 -115 12 -58
7 -178 11 -210 7z"/>
<path d="M12610 3339 c-55 -11 -176 -14 -376 -9 -82 2 -156 0 -162 -4 -7 -4
-12 -20 -12 -36 0 -31 -7 -28 104 -45 52 -8 99 -45 114 -90 26 -76 -24 -274
-138 -547 -58 -137 -216 -452 -236 -469 -9 -8 -24 21 -64 123 -118 301 -256
745 -274 878 -11 75 -3 79 210 116 17 3 23 13 26 40 2 19 2 36 -1 38 -3 1 -67
-1 -141 -5 -74 -4 -249 -7 -388 -8 l-253 -1 3 -27 c2 -23 16 -35 78 -68 67
-37 79 -48 107 -101 119 -219 428 -1039 519 -1376 l28 -108 36 0 35 0 44 113
c24 61 144 333 266 602 122 270 239 528 259 575 72 164 138 258 222 316 47 33
54 42 54 71 0 18 -3 33 -7 32 -5 -1 -28 -5 -53 -10z"/>
<path d="M18170 3337 c-8 -7 -368 -19 -581 -19 l-189 0 0 -26 c0 -23 10 -32
65 -62 36 -19 74 -43 85 -55 88 -94 456 -1057 570 -1493 11 -41 12 -43 46 -40
l35 3 68 165 c38 91 125 291 196 445 70 154 179 394 241 533 146 324 195 401
294 464 36 23 45 34 46 59 l1 31 -76 -8 c-81 -9 -193 -10 -331 -5 -47 2 -110
3 -141 2 l-57 -1 -4 -35 c-2 -20 0 -35 7 -36 146 -7 217 -58 217 -158 0 -122
-109 -434 -254 -727 -82 -164 -130 -246 -139 -237 -18 19 -161 408 -227 618
-62 197 -92 314 -99 381 -5 57 -4 63 18 77 25 16 108 35 167 39 18 1 38 8 43
15 10 11 9 80 -1 70z"/>
</g>
</svg>
